<svg xmlns="http://www.w3.org/2000/svg" xmlns:xlink="http://www.w3.org/1999/xlink" width="91" height="36" viewBox="0 0 91 36">
<defs>
<path id="a" d="M4.657 5.608l81-5.571A5 5 0 0 1 91 5.025v25.95a5 5 0 0 1-5.343 4.988l-81-5.571A5 5 0 0 1 0 25.404V10.597a5 5 0 0 1 4.657-4.989z"/>
</defs>
<g fill="none" fill-rule="evenodd">
<mask id="b" fill="#fff">
<use xlink:href="#a"/>
</mask>
<use fill="#fff" xlink:href="#a"/>
<g fill="#ffac8a" mask="url(#b)">
<path d="M16.999 25.424a.547.547 0 0 1-.175.405.574.574 0 0 1-.415.171h-2.752a.574.574 0 0 1-.415-.17.547.547 0 0 1-.175-.406v-5.397c0-.626-.156-1.12-.47-1.483-.312-.363-.79-.544-1.43-.544-.626 0-1.096.178-1.409.533-.313.356-.47.854-.47 1.494v5.397a.547.547 0 0 1-.174.405.574.574 0 0 1-.415.171H5.947a.574.574 0 0 1-.415-.17.547.547 0 0 1-.175-.406V11.429c0-.156.058-.291.175-.405a.574.574 0 0 1 .415-.17h2.752c.16 0 .298.056.415.17a.547.547 0 0 1 .174.405v4.544c.277-.341.685-.64 1.224-.896a4.02 4.02 0 0 1 1.747-.384c1.47 0 2.628.406 3.473 1.216.845.811 1.267 2.027 1.267 3.648v5.867zm5.832-3.755c0 .598.197 1.024.59 1.28.393.256.852.384 1.376.384.407 0 .742-.042 1.005-.128.262-.085.487-.206.677-.362.16-.128.276-.21.35-.246.072-.035.196-.053.37-.053h2.84c.146 0 .262.043.35.128.087.085.13.2.13.341 0 .285-.218.687-.655 1.206-.437.519-1.085.981-1.944 1.386-.859.406-1.9.608-3.123.608-1.879 0-3.331-.508-4.358-1.525-1.026-1.017-1.54-2.428-1.54-4.235 0-1.123.23-2.119.688-2.986a4.918 4.918 0 0 1 2.02-2.038c.889-.49 1.952-.736 3.19-.736 1.354 0 2.472.281 3.353.843.88.562 1.525 1.287 1.933 2.176.407.889.611 1.817.611 2.784v.597a.547.547 0 0 1-.174.406.574.574 0 0 1-.415.17H22.83zm3.932-2.368a2 2 0 0 0-.601-1.226c-.342-.335-.797-.502-1.365-.502s-1.023.167-1.365.502a2 2 0 0 0-.601 1.226h3.932zm9.802 13.68c-.13.34-.342.511-.633.511h-2.861a.512.512 0 0 1-.372-.149.488.488 0 0 1-.153-.363c0-.056.008-.106.022-.149l1.607-3.708 1.543-3.55-4.412-10.005a.463.463 0 0 1-.022-.15c0-.142.051-.262.153-.362.102-.1.226-.15.371-.15h2.862c.29 0 .502.171.633.513l2.425 5.546 2.402-5.546c.131-.342.343-.512.634-.512h2.883c.146 0 .27.05.371.149.102.1.153.22.153.363a.463.463 0 0 1-.022.149l-5.964 13.676-1.62 3.736zM50.244 25.424a.547.547 0 0 1-.175.405.574.574 0 0 1-.415.171h-2.752a.574.574 0 0 1-.415-.17.547.547 0 0 1-.175-.406V11.429c0-.156.058-.291.175-.405a.574.574 0 0 1 .415-.17h2.752c.16 0 .298.056.415.17a.547.547 0 0 1 .175.405v13.995zm6.465-12.267a.547.547 0 0 1-.175.406.574.574 0 0 1-.415.17h-2.752a.574.574 0 0 1-.415-.17.547.547 0 0 1-.175-.406v-2.154c0-.157.059-.292.175-.406a.574.574 0 0 1 .415-.17h2.752c.16 0 .299.057.415.17a.547.547 0 0 1 .175.406v2.154zm0 12.267a.547.547 0 0 1-.175.405.574.574 0 0 1-.415.171h-2.752a.574.574 0 0 1-.415-.17.547.547 0 0 1-.175-.406v-9.941c0-.157.059-.292.175-.406a.574.574 0 0 1 .415-.17h2.752c.16 0 .299.057.415.17a.547.547 0 0 1 .175.406v9.941zm14.176 0a.547.547 0 0 1-.175.405.574.574 0 0 1-.415.171h-2.752a.574.574 0 0 1-.415-.17.547.547 0 0 1-.175-.406v-5.397c0-.626-.156-1.12-.47-1.483-.313-.363-.79-.544-1.43-.544-.626 0-1.096.178-1.409.533-.313.356-.47.854-.47 1.494v5.397a.547.547 0 0 1-.174.405.574.574 0 0 1-.415.171h-2.753a.574.574 0 0 1-.415-.17.547.547 0 0 1-.174-.406v-9.941c0-.157.058-.292.174-.406a.574.574 0 0 1 .415-.17h2.643c.16 0 .299.057.415.17a.547.547 0 0 1 .175.406v.49c.685-.853 1.711-1.28 3.08-1.28 1.47 0 2.628.406 3.473 1.216.845.811 1.267 2.027 1.267 3.648v5.867zm9.24-10.155c.247-.241.53-.362.851-.362h3.211c.146 0 .27.05.371.149a.488.488 0 0 1 .11.555c-.03.057-.095.135-.197.234l-3.888 4.224 4.587 5.014c.146.156.218.291.218.405a.488.488 0 0 1-.152.363.512.512 0 0 1-.372.149H81.61c-.379 0-.678-.12-.896-.363l-3.473-3.818v3.605a.547.547 0 0 1-.175.405.574.574 0 0 1-.415.171H73.9a.574.574 0 0 1-.415-.17.547.547 0 0 1-.175-.406V11.429c0-.156.059-.291.175-.405a.574.574 0 0 1 .415-.17h2.752c.16 0 .299.056.415.17a.547.547 0 0 1 .175.405v6.912l2.883-3.072z"/>
</g>
</g>
</svg>
