<?xml version="1.0" encoding="UTF-8"?>
<svg width="22px" height="22px" viewBox="0 0 22 22" version="1.1" xmlns="http://www.w3.org/2000/svg" xmlns:xlink="http://www.w3.org/1999/xlink">
<g id="Page-1" stroke="none" stroke-width="1" fill="none" fill-rule="evenodd">
<g id="ic-h-instagram" transform="translate(-7.000000, -7.000000)">
<path d="M17.952,0 C8.038,0 0,8.038 0,17.952 C0,27.866 8.038,35.903 17.952,35.903 C27.866,35.903 35.903,27.866 35.903,17.952 C35.903,8.038 27.866,0 17.952,0 Z" id="Path"></path>
<path d="M17.952,23.562 C14.8817911,23.5581433 12.3938567,21.0702089 12.39,18 C12.3933069,14.929563 14.881563,12.4413069 17.952,12.438 C21.0222089,12.4418567 23.5101433,14.9297911 23.514,18 C23.5095938,21.0699808 21.0219808,23.5575938 17.952,23.562 L17.952,23.562 Z M17.952,14.788 C16.1789751,14.7902039 14.7422039,16.2269751 14.74,18 C14.7422039,19.7730249 16.1789751,21.2097961 17.952,21.212 C19.7246344,21.2092454 21.1607974,19.7726352 21.163,18 C21.163,16.23 19.723,14.788 17.952,14.788 L17.952,14.788 Z M23.692,13.588 C22.967,13.588 22.376,12.998 22.376,12.272 C22.4145324,11.5733504 22.9922886,11.026581 23.692,11.026581 C24.3917114,11.026581 24.9694676,11.5733504 25.008,12.272 C25.008,12.998 24.418,13.588 23.693,13.588 L23.692,13.588 Z M28.75,23.35 C28.7466933,26.3574766 26.3094766,28.7946933 23.302,28.798 L12.602,28.798 C9.59374243,28.7957955 7.15530861,26.3582566 7.152,23.35 L7.152,12.65 C7.15530772,9.64213348 9.59313293,7.20475567 12.601,7.202 L23.302,7.202 C26.3094766,7.20530674 28.7466933,9.64252344 28.75,12.65 L28.75,23.35 Z M23.302,9.552 L12.602,9.552 C10.8913168,9.55310251 9.50465461,10.9393173 9.503,12.65 L9.503,23.35 C9.50465279,25.0599028 10.8900979,26.4457952 12.6,26.448 L23.301,26.448 C25.011455,26.4463472 26.3977952,25.0604544 26.4,23.35 L26.4,12.65 C26.3983462,10.9397073 25.0122927,9.55365379 23.302,9.552 Z" id="Shape" fill="#A587FF" fill-rule="nonzero"></path>
</g>
</g>
</svg>