<?xml version="1.0" encoding="UTF-8"?>
<svg width="22px" height="15px" viewBox="0 0 22 15" version="1.1" xmlns="http://www.w3.org/2000/svg" xmlns:xlink="http://www.w3.org/1999/xlink">
<g id="Page-1" stroke="none" stroke-width="1" fill="none" fill-rule="evenodd">
<g id="ic-h-behance" transform="translate(-7.000000, -11.000000)" fill="#757384" fill-rule="nonzero">
<path d="M24.279,14.764 C19.117,14.764 19.11,19.906 19.11,19.933 C19.11,19.933 18.757,25.081 24.279,25.081 C24.279,25.081 28.884,25.343 28.884,21.498 L26.52,21.498 C26.52,21.498 26.598,22.946 24.358,22.946 C24.358,22.946 21.993,23.103 21.993,20.607 L28.963,20.607 C28.963,20.607 29.73,14.764 24.279,14.764 Z M21.966,18.805 C21.966,18.805 22.255,16.735 24.332,16.735 C26.415,16.735 26.3820311,18.805 26.3820311,18.805 L21.966,18.805 Z M16.058,17.482 C16.058,17.482 18.108,17.332 18.108,14.921 C18.108,12.517 16.431,11.337 14.302,11.337 L7.3,11.337 L7.3,24.8 L14.303,24.8 C14.303,24.8 18.581,24.93 18.581,20.823 C18.581,20.823 18.764,17.483 16.059,17.483 L16.058,17.482 Z M10.385,13.728 L14.302,13.728 C14.302,13.728 15.252,13.728 15.252,15.13 C15.252,16.532 14.695,16.735 14.059,16.735 L10.385,16.735 L10.385,13.728 Z M14.105,22.408 L10.385,22.408 L10.385,18.8049975 L14.302,18.805 C14.302,18.805 15.724,18.792 15.717,20.659 C15.717,22.232 14.663,22.396 14.106,22.409 L14.105,22.408 Z M21.383,12.13 L21.383,13.788 L26.939,13.788 L26.939,12.13 L21.383,12.13 Z" id="Shape"></path>
</g>
</g>
</svg>