<?xml version="1.0" encoding="UTF-8"?>
<svg width="24px" height="24px" viewBox="0 0 24 24" version="1.1" xmlns="http://www.w3.org/2000/svg" xmlns:xlink="http://www.w3.org/1999/xlink">
<g id="Page-1" stroke="none" stroke-width="1" fill="none" fill-rule="evenodd">
<g id="ic-h-dribbble" transform="translate(-6.000000, -6.000000)">
<circle id="Oval" cx="17.872" cy="17.872" r="17.872"></circle>
<path d="M17.872,6.522 C11.605,6.522 6.507,11.614 6.507,17.872 C6.507,24.131 11.605,29.222 17.872,29.222 C24.138,29.222 29.236,24.131 29.236,17.872 C29.236,11.614 24.138,6.522 17.872,6.522 Z M25.35,11.879 C26.6906559,13.5360766 27.437092,15.5947613 27.47,17.726 C26.0067969,17.4434883 24.5202228,17.2995183 23.03,17.296 C22.325,17.296 21.583,17.332 20.84,17.424 C20.5910224,16.8139084 20.3218744,16.2122442 20.033,15.62 C23.393,14.235 25.013,12.314 25.35,11.879 L25.35,11.879 Z M17.872,8.299 C20.293,8.299 22.507,9.199 24.197,10.68 C23.93,11.045 22.478,12.86 19.239,14.084 C18.179784,12.1652728 17.0000885,10.3155691 15.707,8.546 C16.4169297,8.38162757 17.1432899,8.29875876 17.872,8.299 L17.872,8.299 Z M13.748,9.229 C14.078,9.685 15.722,11.979 17.261,14.699 C13.133,15.783 9.467,15.854 8.582,15.854 L8.488,15.854 C9.12521893,12.9523697 11.0663865,10.5074581 13.748,9.229 L13.748,9.229 Z M8.27,17.887 C8.27,17.808 8.272,17.729 8.274,17.651 L8.526,17.651 C9.718,17.651 13.854,17.553 18.116,16.288 C18.374,16.794 18.621,17.308 18.85,17.821 C18.742,17.851 18.636,17.882 18.53,17.917 C13.732,19.467 11.094,23.57 10.688,24.24 C9.12929105,22.4910594 8.26861037,20.2297259 8.27,17.887 L8.27,17.887 Z M17.872,27.475 C15.7527328,27.4770678 13.6928387,26.7749591 12.016,25.479 C12.29,24.941 14.281,21.357 19.54,19.526 C19.5432654,19.524786 19.5466056,19.5237839 19.55,19.523 C20.869,22.956 21.427,25.837 21.58,26.73 C20.406041,27.2230967 19.1453115,27.4763986 17.872,27.475 Z M23.31,25.785 C23.181,25.046 22.664,22.345 21.47,19.052 C22.1093196,18.9541133 22.7552315,18.9056365 23.402,18.907 C25.409,18.907 26.978,19.347 27.343,19.457 C26.9122148,22.0258857 25.4566806,24.3096993 23.31,25.785 Z" id="Shape" fill="#A587FF" fill-rule="nonzero"></path>
</g>
</g>
</svg>