<svg xmlns="http://www.w3.org/2000/svg" width="24" height="24" viewBox="0 0 24 24">
<g fill="none" fill-rule="nonzero" transform="translate(-6 -6)">
<circle cx="17.872" cy="17.872" r="17.872"/>
<path fill="#757384" d="M17.872 6.522c-6.267 0-11.365 5.092-11.365 11.35 0 6.259 5.098 11.35 11.365 11.35 6.266 0 11.364-5.091 11.364-11.35 0-6.258-5.098-11.35-11.364-11.35zm7.478 5.357a9.53 9.53 0 0 1 2.12 5.847 23.716 23.716 0 0 0-4.44-.43c-.705 0-1.447.036-2.19.128a29.795 29.795 0 0 0-.807-1.804c3.36-1.385 4.98-3.306 5.317-3.741zm-7.478-3.58c2.421 0 4.635.9 6.325 2.381-.267.365-1.719 2.18-4.958 3.404a51.898 51.898 0 0 0-3.532-5.538 9.584 9.584 0 0 1 2.165-.247zm-4.124.93c.33.456 1.974 2.75 3.513 5.47-4.128 1.084-7.794 1.155-8.679 1.155h-.094a9.627 9.627 0 0 1 5.26-6.625zM8.27 17.887c0-.079.002-.158.004-.236h.252c1.192 0 5.328-.098 9.59-1.363.258.506.505 1.02.734 1.533-.108.03-.214.061-.32.096-4.798 1.55-7.436 5.653-7.842 6.323a9.54 9.54 0 0 1-2.418-6.353zm9.602 9.588a9.561 9.561 0 0 1-5.856-1.996c.274-.538 2.265-4.122 7.524-5.953a.081.081 0 0 1 .01-.003c1.319 3.433 1.877 6.314 2.03 7.207a9.548 9.548 0 0 1-3.708.745zm5.438-1.69c-.129-.739-.646-3.44-1.84-6.733a12.59 12.59 0 0 1 1.932-.145c2.007 0 3.576.44 3.941.55a9.606 9.606 0 0 1-4.033 6.328z"/>
</g>
</svg>
