<svg xmlns="http://www.w3.org/2000/svg" width="22" height="22" viewBox="0 0 22 22">
<g fill="none" fill-rule="nonzero">
<path d="M10.952-7C1.038-7-7 1.038-7 10.952c0 9.914 8.038 17.951 17.952 17.951 9.914 0 17.951-8.037 17.951-17.951S20.866-7 10.952-7z"/>
<path fill="#757384" d="M10.952 16.562A5.569 5.569 0 0 1 5.39 11a5.568 5.568 0 0 1 5.562-5.562A5.569 5.569 0 0 1 16.514 11a5.57 5.57 0 0 1-5.562 5.562zm0-8.774A3.216 3.216 0 0 0 7.74 11a3.216 3.216 0 0 0 3.212 3.212A3.216 3.216 0 0 0 14.163 11c0-1.77-1.44-3.212-3.211-3.212zm5.74-1.2c-.725 0-1.316-.59-1.316-1.316a1.318 1.318 0 0 1 2.632 0c0 .726-.59 1.316-1.315 1.316zm5.058 9.762a5.454 5.454 0 0 1-5.448 5.448h-10.7A5.454 5.454 0 0 1 .152 16.35V5.65A5.454 5.454 0 0 1 5.601.202h10.701A5.454 5.454 0 0 1 21.75 5.65v10.7zM16.302 2.552h-10.7A3.101 3.101 0 0 0 2.503 5.65v10.7A3.101 3.101 0 0 0 5.6 19.448h10.701A3.102 3.102 0 0 0 19.4 16.35V5.65a3.101 3.101 0 0 0-3.098-3.098z"/>
</g>
</svg>
