<svg xmlns="http://www.w3.org/2000/svg" width="163" height="21" viewBox="0 0 163 21">
<defs>
<linearGradient id="a" x1="36.698%" x2="132.195%" y1="23.295%" y2="100%">
<stop offset="0%" stop-color="#EC6F3F"/>
<stop offset="100%" stop-color="#ED8852"/>
</linearGradient>
<linearGradient id="b" x1="0%" x2="50%" y1="0%" y2="100%">
<stop offset="0%" stop-color="#EB6F3F"/>
<stop offset="100%" stop-color="#EC9157"/>
</linearGradient>
<linearGradient id="c" x1="29.763%" x2="50%" y1="28.109%" y2="100%">
<stop offset="0%" stop-color="#EE965C"/>
<stop offset="100%" stop-color="#EDA06A"/>
</linearGradient>
</defs>
<g fill="none" fill-rule="evenodd">
<path fill="#FFF" d="M9.24 20.125a10.04 10.04 0 0 1-5.893-2.544l5.893-5.893v8.437zm-7.046-3.767A10.033 10.033 0 0 1 .009 10.5h8.043l-5.858 5.858zM.078 8.82a10.042 10.042 0 0 1 2.5-5.473L8.053 8.82H.078zm20.073 1.68a10.033 10.033 0 0 1-2.185 5.858L12.108 10.5h8.043zm-3.338 7.081a10.04 10.04 0 0 1-5.893 2.544v-8.437l5.893 5.893z"/>
<path fill="url(#a)" d="M3.802 2.194A10.032 10.032 0 0 1 9.24.034v7.598L3.802 2.194z"/>
<path fill="url(#b)" d="M10.92.035c2.047.168 3.921.95 5.438 2.159L10.92 7.632V.035z"/>
<path fill="url(#c)" d="M17.581 3.347a10.042 10.042 0 0 1 2.501 5.473h-7.974l5.473-5.473z"/>
<path fill="#FFF" d="M32.333 16.242c-1.34 0-2.563-.564-3.504-1.74v5.786h-2.987V4.6h2.987v1.435c.87-1.106 2.117-1.717 3.504-1.717 2.917 0 5.034 2.163 5.034 5.95 0 3.787-2.117 5.974-5.034 5.974zm-.94-2.658c1.716 0 2.892-1.34 2.892-3.316 0-1.952-1.176-3.293-2.893-3.293-.964 0-2.046.541-2.563 1.294v3.998c.494.73 1.6 1.317 2.563 1.317zm18.839 2.376h-2.987V9.045c0-1.576-.823-2.07-2.093-2.07-1.176 0-2.094.659-2.588 1.317v7.668h-3.01V.272h3.01v5.786c.73-.847 2.117-1.74 3.975-1.74 2.493 0 3.693 1.364 3.693 3.575v8.067zm8.232.282c-3.74 0-5.998-2.752-5.998-5.974 0-3.222 2.258-5.95 5.998-5.95 3.763 0 6.021 2.728 6.021 5.95s-2.258 5.974-6.021 5.974zm0-2.658c1.882 0 2.916-1.528 2.916-3.316 0-1.764-1.034-3.293-2.916-3.293-1.858 0-2.893 1.53-2.893 3.293 0 1.788 1.035 3.316 2.893 3.316zm18.934 2.376h-3.011V9.092c0-1.576-.823-2.117-2.093-2.117-1.176 0-2.07.659-2.587 1.317v7.668H66.72V4.6h2.987v1.458c.729-.847 2.14-1.74 3.974-1.74 2.517 0 3.717 1.41 3.717 3.622v8.02zm8.279.282c-3.458 0-6.069-2.328-6.069-5.974 0-3.293 2.447-5.95 5.88-5.95 3.41 0 5.692 2.54 5.692 6.232v.706h-8.443c.211 1.388 1.34 2.54 3.269 2.54.964 0 2.281-.4 3.01-1.105l1.341 1.975c-1.129 1.035-2.916 1.576-4.68 1.576zm2.634-7.056c-.094-1.082-.847-2.422-2.823-2.422-1.858 0-2.657 1.293-2.775 2.422h5.598zm18.204 6.774h-3.198l-2.4-7.738-2.398 7.738h-3.2L91.863 4.6h3.105l2.117 7.644L99.577 4.6h2.658l2.493 7.644 2.117-7.644h3.128l-3.458 11.36zm14.77 0h-3.01v-1.2c-.776.941-2.116 1.482-3.598 1.482-1.811 0-3.928-1.223-3.928-3.763 0-2.681 2.117-3.67 3.928-3.67 1.529 0 2.846.495 3.598 1.389V8.763c0-1.153-.987-1.905-2.493-1.905-1.2 0-2.328.47-3.269 1.34l-1.176-2.093c1.388-1.246 3.175-1.787 4.963-1.787 2.61 0 4.986 1.034 4.986 4.304v7.338zm-5.409-1.74c.965 0 1.905-.33 2.4-.988V11.82c-.495-.658-1.435-1.01-2.4-1.01-1.176 0-2.14.634-2.14 1.716 0 1.082.964 1.694 2.14 1.694zm13.007 6.35c-1.929 0-3.458-.447-4.892-1.694l1.34-2.14c.918.988 2.14 1.388 3.552 1.388 1.435 0 3.152-.612 3.152-2.917v-1.105c-.894 1.129-2.117 1.764-3.528 1.764-2.823 0-5.01-1.976-5.01-5.762 0-3.717 2.14-5.786 5.01-5.786 1.364 0 2.61.564 3.528 1.74V4.6h2.987v10.607c0 4.305-3.34 5.363-6.14 5.363zm.588-7.338c.964 0 2.046-.565 2.564-1.294V8.245c-.518-.729-1.6-1.27-2.564-1.27-1.717 0-2.893 1.176-2.893 3.129 0 1.952 1.176 3.128 2.893 3.128zm13.783 3.01c-3.74 0-5.998-2.752-5.998-5.974 0-3.222 2.258-5.95 5.998-5.95 3.763 0 6.02 2.728 6.02 5.95s-2.257 5.974-6.02 5.974zm0-2.658c1.881 0 2.916-1.528 2.916-3.316 0-1.764-1.035-3.293-2.916-3.293-1.858 0-2.893 1.53-2.893 3.293 0 1.788 1.035 3.316 2.893 3.316zm18.933 2.376h-3.01V9.092c0-1.576-.824-2.117-2.094-2.117-1.176 0-2.07.659-2.587 1.317v7.668h-2.987V4.6h2.987v1.458c.73-.847 2.14-1.74 3.975-1.74 2.517 0 3.716 1.41 3.716 3.622v8.02z"/>
</g>
</svg>
