<svg xmlns="http://www.w3.org/2000/svg" width="92" height="28" viewBox="0 0 92 28">
<defs>
<linearGradient id="a" x1="50%" x2="12.239%" y1="0%" y2="95.982%">
<stop offset="0%" stop-color="#9EF8F7"/>
<stop offset="100%" stop-color="#64E2E1"/>
</linearGradient>
<linearGradient id="b" x1="37.747%" x2="64.503%" y1="9.712%" y2="95.274%">
<stop offset="0%" stop-color="#67ACFD"/>
<stop offset="100%" stop-color="#3A93FD"/>
</linearGradient>
</defs>
<g fill="none" fill-rule="evenodd">
<path fill="url(#a)" d="M12.668 10.957L22.998.627l10.33 10.33-10.33 10.33z"/>
<path fill="url(#b)" d="M.272 10.957L10.602.627 27.13 17.154 16.8 27.484z"/>
<path fill="#4E6377" d="M45.78 9.435a.388.388 0 0 1-.04-.176c0-.064.04-.144.122-.239a.435.435 0 0 1 .349-.143h1.454c.346 0 .609.21.79.631l2.57 5.724 2.57-5.724c.182-.416.445-.626.79-.63h1.455c.155 0 .272.047.352.142.08.095.12.175.12.24a.453.453 0 0 1-.034.175l-3.825 8.288c-.208.451-.524.677-.95.677h-.956c-.425 0-.741-.226-.95-.677L45.78 9.435zm11.488.299v-.226c0-.234.067-.42.202-.558.135-.137.322-.205.561-.205h.824c.234 0 .42.067.558.202.137.135.205.322.205.561v.226c0 .235-.067.42-.202.558-.135.137-.322.206-.561.206h-.824c-.234 0-.42-.069-.558-.206-.137-.137-.205-.323-.205-.558zm.026 8.26v-6.301a.39.39 0 0 1 .405-.405h1.488a.39.39 0 0 1 .405.405v6.302a.39.39 0 0 1-.405.405h-1.488a.395.395 0 0 1-.292-.113.395.395 0 0 1-.113-.292zm7.424-1.035l.91-.08h.246c.12 0 .218.038.295.113a.39.39 0 0 1 .117.292v.71a.362.362 0 0 1-.117.263.511.511 0 0 1-.295.143c-.452.089-1.04.133-1.767.133-1.903 0-2.855-.996-2.855-2.988V9.289a.4.4 0 0 1 .405-.412h1.488a.4.4 0 0 1 .405.412v2.218h1.852a.39.39 0 0 1 .405.405v.79a.39.39 0 0 1-.405.405H63.55v2.438c0 .451.106.8.318 1.045.213.246.496.369.85.369zm3.121.963c-.584-.407-.876-.983-.876-1.727 0-.743.293-1.315.88-1.713.586-.398 1.342-.598 2.268-.598h2.198c0-.518-.109-.878-.326-1.082-.217-.204-.596-.306-1.139-.306-.542 0-.923.134-1.142.402-.219.268-.488.402-.807.402h-.99a.4.4 0 0 1-.41-.405c0-1.27 1.206-1.906 3.618-1.906 1.054 0 1.9.236 2.537.707.638.472.956 1.201.956 2.188v4.11c0 .12-.037.218-.113.293a.395.395 0 0 1-.292.113H72.92a.39.39 0 0 1-.406-.405v-.206c-.699.5-1.506.75-2.42.747-.914-.002-1.666-.207-2.255-.614zm2.43-2.53c-.309 0-.554.075-.733.226a.728.728 0 0 0-.269.584c0 .239.093.436.28.591.185.155.448.232.79.232.681 0 1.339-.199 1.972-.597v-1.036h-2.04zm5.97 2.603V9.289a.4.4 0 0 1 .406-.412h1.487a.4.4 0 0 1 .405.412v8.706a.392.392 0 0 1-.116.289.392.392 0 0 1-.289.116h-1.487a.392.392 0 0 1-.289-.116.392.392 0 0 1-.116-.29zm3.932 0V9.289a.4.4 0 0 1 .405-.412h1.488a.4.4 0 0 1 .405.412v8.706a.392.392 0 0 1-.116.289.392.392 0 0 1-.29.116h-1.487a.392.392 0 0 1-.289-.116.392.392 0 0 1-.116-.29zm5.346 1.096l.87.113c.624 0 1.06-.459 1.308-1.375-.753 0-1.381-.227-1.886-.68-.505-.455-.939-1.261-1.302-2.421l-.989-3.208a.349.349 0 0 1-.02-.123c0-.046.028-.102.083-.169.055-.066.138-.102.25-.106h1.387c.128 0 .251.043.369.13a.588.588 0 0 1 .229.321l.87 2.816c.216.69.437 1.169.66 1.434.224.266.488.399.794.399l1.321-4.649a.626.626 0 0 1 .21-.322.532.532 0 0 1 .348-.13h1.401c.111 0 .193.036.246.107.053.071.08.13.08.176a.43.43 0 0 1-.014.116l-1.74 6.203c-.31 1.098-.693 1.881-1.152 2.35-.458.47-1.048.704-1.77.704-.72 0-1.231-.026-1.53-.08-.299-.052-.486-.118-.561-.195a.374.374 0 0 1-.113-.27v-.73c0-.12.038-.218.113-.295a.39.39 0 0 1 .292-.116h.246z"/>
</g>
</svg>
